<svg viewBox="0 0 369.6923076923077 76.92307692307692" preserveAspectRatio="xMidYMid meet" class="css-g5ufxp" id="eahafbcd"><defs id="SvgjsDefs1001"></defs><g id="SvgjsG1007" featurekey="symbolFeature-0" transform="matrix(0.9615384615384616,0,0,0.9615384615384616,-14.423076923076923,-9.615384615384615)" fill="#111"><path xmlns="http://www.w3.org/2000/svg" d="M50,10L15,30v40l35,20l34.99-19.994L85,69.99V30L50,10z M50,17.699L74.89,31.92l-6.732,3.848L50,25.397L31.846,35.771  l-6.738-3.851L50,17.699z M64.795,41.546v13.059L53.369,48.08V35.02L64.795,41.546z M46.631,35.02v13.057l-11.423,6.527V41.546  L46.631,35.02z M46.631,80.377L21.735,66.152v-28.46l6.734,3.848v20.761L46.631,72.68V80.377z M38.571,60.377l11.426-6.529  l11.429,6.529L50,66.904L38.571,60.377z M78.265,66.152L53.369,80.377V72.68L71.53,62.305V41.54l6.734-3.848V66.152z"></path></g><g id="SvgjsG1008" featurekey="fiAKjI-0" transform="matrix(1.2145226664020226,0,0,1.2145226664020226,86.3684476575066,10.68857472968408)" fill="#111"><path d="M7.76 8.9 c-2.32 0 -4.08 1.86 -4.08 4.22 c0 2.42 1.76 4.26 4.18 4.26 c1.68 0 2.96 -0.88 3.74 -2.22 l2.42 1.68 c-1.32 2.16 -3.34 3.44 -6.12 3.44 c-4.22 0 -7.38 -3.14 -7.38 -7.16 c0 -3.98 3.14 -7.1 7.3 -7.1 c2.7 0 4.84 1.12 6.14 3.42 l-2.46 1.7 c-0.8 -1.32 -2 -2.24 -3.74 -2.24 z M22.16 20.28 c-4 0 -7.26 -3.06 -7.26 -7.12 c0 -4.08 3.26 -7.14 7.26 -7.14 c4.1 0 7.26 3.06 7.26 7.12 c0 4.08 -3.16 7.14 -7.26 7.14 z M22.16 17.4 c2.32 0 4.1 -1.84 4.1 -4.26 c0 -2.38 -1.78 -4.24 -4.1 -4.24 s-4.1 1.86 -4.1 4.26 s1.78 4.24 4.1 4.24 z M39.28 20 l-5.52 -8.68 l0 8.68 l-2.98 0 l0 -13.7 l3.38 0 l5.52 8.7 l0 -8.7 l2.98 0 l0 13.7 l-3.38 0 z M50.980000000000004 20 l-3.1 0 l0 -10.86 l-4.08 0 l0 -2.84 l11.26 0 l0 2.84 l-4.08 0 l0 10.86 z M63.9 14.9 l-1.78 -5.36 l-1.78 5.36 l3.56 0 z M65.6 20 l-0.78 -2.36 l-5.38 0 l-0.78 2.36 l-3.18 0 l4.84 -13.7 l3.8 0 l4.82 13.7 l-3.34 0 z M69.9 20 l0 -13.7 l5.64 0 c3.06 0 4.42 1.7 4.42 3.72 c0 1.22 -0.58 2.2 -1.72 2.78 c1.72 0.52 2.64 1.68 2.64 3.28 c0 2.24 -1.58 3.92 -4.82 3.92 l-6.16 0 z M75.32000000000001 8.96 l-2.32 0 l0 2.8 l2.32 0 c1.06 0 1.6 -0.6 1.6 -1.42 c0 -0.8 -0.54 -1.38 -1.6 -1.38 z M75.88 14.379999999999999 l-2.88 0 l0 2.96 l2.9 0 c1.2 0 1.88 -0.6 1.88 -1.44 c0 -0.9 -0.68 -1.52 -1.9 -1.52 z M85.24 20 l-3.1 0 l0 -13.7 l3.1 0 l0 13.7 z M86.9 20 l0 -13.7 l3.1 0 l0 10.86 l6.36 0 l0 2.84 l-9.46 0 z M100.88 20 l-3.1 0 l0 -13.7 l3.1 0 l0 13.7 z M102.54 20 l0 -13.7 l5.6 0 c4.22 0 6.98 3 6.98 6.78 c0 3.86 -2.88 6.92 -7.14 6.92 l-5.44 0 z M107.98 9.14 l-2.34 0 l0 8.02 l2.44 0 c2.22 0 3.92 -1.72 3.92 -4.04 c0 -2.28 -1.7 -3.98 -4.02 -3.98 z M124.18 14.9 l-1.78 -5.36 l-1.78 5.36 l3.56 0 z M125.88 20 l-0.78 -2.36 l-5.38 0 l-0.78 2.36 l-3.18 0 l4.84 -13.7 l3.8 0 l4.82 13.7 l-3.34 0 z M130.18 20 l0 -13.7 l5.6 0 c4.22 0 6.98 3 6.98 6.78 c0 3.86 -2.88 6.92 -7.14 6.92 l-5.44 0 z M135.62 9.14 l-2.34 0 l0 8.02 l2.44 0 c2.22 0 3.92 -1.72 3.92 -4.04 c0 -2.28 -1.7 -3.98 -4.02 -3.98 z M144.12 20 l0 -13.7 l10.02 0 l0 2.8 l-6.92 0 l0 2.58 l6.4 0 l0 2.72 l-6.4 0 l0 2.8 l6.94 0 l0 2.8 l-10.04 0 z M159.48 20 l0 -13.7 l5.6 0 c4.22 0 6.98 3 6.98 6.78 c0 3.86 -2.88 6.92 -7.14 6.92 l-5.44 0 z M164.92 9.14 l-2.34 0 l0 8.02 l2.44 0 c2.22 0 3.92 -1.72 3.92 -4.04 c0 -2.28 -1.7 -3.98 -4.02 -3.98 z M176.51999999999998 20 l-3.1 0 l0 -13.7 l3.1 0 l0 13.7 z M192.17999999999998 13.120000000000001 c0 4.1 -2.84 7.16 -6.94 7.16 c-4.34 0 -7.38 -3.18 -7.38 -7.14 c0 -3.9 2.94 -7.12 7.38 -7.12 c2.56 0 4.54 1.04 5.78 2.82 l-2.28 1.94 c-0.92 -1.16 -2.06 -1.86 -3.5 -1.86 c-2.38 0 -4.22 1.76 -4.22 4.3 c0 2.4 1.72 4.18 4.14 4.18 c1.84 0 3.04 -0.92 3.56 -2.38 l-3.64 0 l0 -2.7 l7.1 0 l0 0.8 z M196.59999999999997 20 l-3.1 0 l0 -13.7 l3.1 0 l0 13.7 z M204.89999999999995 20 l-3.1 0 l0 -10.86 l-4.08 0 l0 -2.84 l11.26 0 l0 2.84 l-4.08 0 l0 10.86 z M217.81999999999996 14.9 l-1.78 -5.36 l-1.78 5.36 l3.56 0 z M219.51999999999998 20 l-0.78 -2.36 l-5.38 0 l-0.78 2.36 l-3.18 0 l4.84 -13.7 l3.8 0 l4.82 13.7 l-3.34 0 z M223.81999999999996 20 l0 -13.7 l3.1 0 l0 10.86 l6.36 0 l0 2.84 l-9.46 0 z"></path></g><g id="SvgjsG1009" featurekey="sloganFeature-0" transform="matrix(0.6704191681873052,0,0,0.6704191681873052,143.38321435407886,43.83347072088067)" fill="#111"><path d="M0.92 18.54 c0.88 0.82 2.7 1.66 4.52 1.66 c2.8 0 4.58 -1.44 4.58 -3.7 c0 -1.84 -0.88 -2.92 -3.92 -4.64 c-2.32 -1.34 -2.88 -1.78 -2.88 -2.66 c0 -0.94 0.88 -1.68 2.36 -1.68 c0.86 0 2 0.38 2.66 0.8 l0.96 -1.44 c-0.94 -0.62 -2.42 -1.08 -3.6 -1.08 c-2.58 0 -4.3 1.48 -4.3 3.42 c0 1.72 0.86 2.58 3.5 4.02 c2.34 1.28 3.3 2.22 3.3 3.24 c0 1.2 -1.04 1.92 -2.66 1.92 c-1.4 0 -2.8 -0.66 -3.5 -1.3 z M23.567 18.28 l0.12 1.72 l-8.52 0 l0 -14 l8.12 0 l0.14 1.72 l-6.46 0 l0 3.42 l4.38 0 l0 1.72 l-4.38 0 l0 5.42 l6.6 0 z M39.014 11.06 c0 2.26 -1.06 4.2 -3.24 4.84 l3.02 4.1 l-2.16 0 l-2.86 -3.88 l-3.14 0 l0 3.88 l-1.8 0 l0 -14 l5.28 0 c3.3 0 4.9 2.28 4.9 5.06 z M30.634 7.68 l0 6.74 l3.4 0 c2.26 0 3.18 -1.66 3.18 -3.36 s-0.92 -3.38 -3.18 -3.38 l-3.4 0 z M43.141000000000005 6 l1.96 0 l4.24 10.24 l4.26 -10.24 l1.96 0 l-6.1 14.2 l-0.22 0 z M60.30800000000001 20 l0 -14 l1.8 0 l0 14 l-1.8 0 z M73.83500000000001 20.98 c0.54 0 1.2 0.42 1.2 1.22 c0 0.94 -0.82 1.38 -1.86 1.38 c-0.54 0 -1.06 -0.18 -1.4 -0.36 l0.22 -0.56 c0.28 0.12 0.6 0.24 1.04 0.24 c0.5 0 0.82 -0.3 0.82 -0.66 c0 -0.3 -0.18 -0.56 -0.68 -0.56 c-0.3 0 -0.58 0.1 -0.78 0.18 l-0.32 -0.42 l0.78 -1.46 c-3.12 -0.78 -5.38 -3.58 -5.38 -6.98 c0 -4.04 3.18 -7.2 7.18 -7.2 c1.68 0 3.28 0.56 4.7 1.64 l-0.9 1.4 c-1.18 -0.9 -2.4 -1.34 -3.8 -1.34 c-3.02 0 -5.38 2.42 -5.38 5.5 s2.38 5.5 5.38 5.5 c1.52 0 2.82 -0.48 3.8 -1.42 l0.92 1.38 c-1.22 1.1 -2.94 1.74 -4.72 1.74 c-0.3 0 -0.6 -0.02 -0.9 -0.06 l-0.5 0.96 c0.08 -0.04 0.36 -0.12 0.58 -0.12 z M91.142 20.2 c-4 0 -7.18 -3.2 -7.18 -7.2 s3.18 -7.2 7.18 -7.2 s7.18 3.2 7.18 7.2 s-3.18 7.2 -7.18 7.2 z M91.142 18.48 c3.04 0 5.32 -2.38 5.32 -5.48 s-2.28 -5.48 -5.32 -5.48 c-3.06 0 -5.34 2.38 -5.34 5.48 s2.28 5.48 5.34 5.48 z M102.929 18.54 c0.88 0.82 2.7 1.66 4.52 1.66 c2.8 0 4.58 -1.44 4.58 -3.7 c0 -1.84 -0.88 -2.92 -3.92 -4.64 c-2.32 -1.34 -2.88 -1.78 -2.88 -2.66 c0 -0.94 0.88 -1.68 2.36 -1.68 c0.86 0 2 0.38 2.66 0.8 l0.96 -1.44 c-0.94 -0.62 -2.42 -1.08 -3.6 -1.08 c-2.58 0 -4.3 1.48 -4.3 3.42 c0 1.72 0.86 2.58 3.5 4.02 c2.34 1.28 3.3 2.22 3.3 3.24 c0 1.2 -1.04 1.92 -2.66 1.92 c-1.4 0 -2.8 -0.66 -3.5 -1.3 z M126.003 13 c0 -4.04 3.18 -7.2 7.18 -7.2 c1.68 0 3.28 0.56 4.7 1.64 l-0.9 1.4 c-1.18 -0.9 -2.4 -1.34 -3.8 -1.34 c-3.02 0 -5.38 2.42 -5.38 5.5 s2.38 5.5 5.38 5.5 c1.52 0 2.82 -0.48 3.8 -1.42 l0.92 1.38 c-1.22 1.1 -2.94 1.74 -4.72 1.74 c-4 0 -7.18 -3.18 -7.18 -7.2 z M149.67 20.2 c-4 0 -7.18 -3.2 -7.18 -7.2 s3.18 -7.2 7.18 -7.2 s7.18 3.2 7.18 7.2 s-3.18 7.2 -7.18 7.2 z M149.67 18.48 c3.04 0 5.32 -2.38 5.32 -5.48 s-2.28 -5.48 -5.32 -5.48 c-3.06 0 -5.34 2.38 -5.34 5.48 s2.28 5.48 5.34 5.48 z M171.83700000000002 6 l1.8 0 l0 14.2 l-0.22 0 l-9.4 -9.98 l0 9.78 l-1.78 0 l0 -14.2 l0.2 0 l9.4 9.98 l0 -9.78 z M188.304 7.720000000000001 l-4.08 0 l0 12.28 l-1.8 0 l0 -12.28 l-4.1 0 l0.12 -1.72 l9.74 0 z M199.91100000000003 2.9400000000000013 l-3.6 1.56 l-0.48 -0.9 l3.4 -1.86 z M202.23100000000002 20 l-1.22 -2.84 l-6.24 0 l-1.22 2.84 l-1.92 0 l6.16 -14.2 l0.2 0 l6.16 14.2 l-1.92 0 z M195.491 15.48 l4.8 0 l-2.4 -5.54 z M216.29800000000003 11.16 c1.76 0.64 2.78 2.24 2.78 4.28 c0 2.38 -1.18 4.48 -5 4.56 l-5.38 0 l0 -14 l5.6 0 c2.46 0 3.14 1.8 3.14 2.94 c0 1 -0.6 1.8 -1.14 2.22 z M214.07800000000003 7.619999999999999 l-3.58 0 l0 3.12 l3.2 0 c1.42 0 1.98 -0.72 1.98 -1.58 c0 -0.62 -0.4 -1.54 -1.6 -1.54 z M213.918 18.28 c2.32 0 3.32 -1.16 3.32 -2.84 c0 -1.88 -1.04 -3.2 -3.28 -3.2 l-3.46 0 l0 6.04 l3.42 0 z M232.60500000000002 18.28 l0.12 1.72 l-8.52 0 l0 -14 l8.12 0 l0.14 1.72 l-6.46 0 l0 3.42 l4.38 0 l0 1.72 l-4.38 0 l0 5.42 l6.6 0 z M237.872 20 l0 -14 l1.8 0 l0 14 l-1.8 0 z M244.81900000000002 18.54 c0.88 0.82 2.7 1.66 4.52 1.66 c2.8 0 4.58 -1.44 4.58 -3.7 c0 -1.84 -0.88 -2.92 -3.92 -4.64 c-2.32 -1.34 -2.88 -1.78 -2.88 -2.66 c0 -0.94 0.88 -1.68 2.36 -1.68 c0.86 0 2 0.38 2.66 0.8 l0.96 -1.44 c-0.94 -0.62 -2.42 -1.08 -3.6 -1.08 c-2.58 0 -4.3 1.48 -4.3 3.42 c0 1.72 0.86 2.58 3.5 4.02 c2.34 1.28 3.3 2.22 3.3 3.24 c0 1.2 -1.04 1.92 -2.66 1.92 c-1.4 0 -2.8 -0.66 -3.5 -1.3 z"></path></g></svg>